<!-- Fichier: assets/icons/sprite.svg -->
<svg xmlns="http://www.w3.org/2000/svg" style="display: none;">
  <symbol id="upload" viewBox="0 -960 960 960">
    <path d="M440-320v-326L336-542l-56-58 200-200 200 200-56 58-104-104v326h-80ZM240-160q-33 0-56.5-23.5T160-240v-120h80v120h480v-120h80v120q0 33-23.5 56.5T720-160H240Z"/>
  </symbol>

  <symbol id="slider" viewBox="0 -960 960 960">
    <path d="M234.55-160q-14.22 0-23.72-9.58-9.5-9.59-9.5-23.75v-256h-48q-14.16 0-23.75-9.62-9.58-9.62-9.58-23.83 0-14.22 9.58-23.72 9.59-9.5 23.75-9.5H316q14.17 0 23.75 9.62 9.58 9.61 9.58 23.83 0 14.22-9.58 23.72-9.58 9.5-23.75 9.5h-48v256q0 14.16-9.62 23.75-9.61 9.58-23.83 9.58Zm0-422.67q-14.22 0-23.72-9.58-9.5-9.58-9.5-23.75v-150.67q0-14.16 9.62-23.75 9.62-9.58 23.83-9.58 14.22 0 23.72 9.58 9.5 9.59 9.5 23.75V-616q0 14.17-9.62 23.75-9.61 9.58-23.83 9.58ZM398.67-610q-14.17 0-23.75-9.62-9.59-9.61-9.59-23.83 0-14.22 9.59-23.72 9.58-9.5 23.75-9.5h48v-90q0-14.16 9.61-23.75 9.62-9.58 23.84-9.58 14.21 0 23.71 9.58 9.5 9.59 9.5 23.75v90h48q14.17 0 23.75 9.62 9.59 9.62 9.59 23.83 0 14.22-9.59 23.72-9.58 9.5-23.75 9.5H398.67Zm81.21 450q-14.21 0-23.71-9.58-9.5-9.59-9.5-23.75V-510q0-14.17 9.61-23.75 9.62-9.58 23.84-9.58 14.21 0 23.71 9.58t9.5 23.75v316.67q0 14.16-9.61 23.75-9.62 9.58-23.84 9.58Zm245.34 0q-14.22 0-23.72-9.58-9.5-9.59-9.5-23.75v-91.34h-48q-14.17 0-23.75-9.61-9.58-9.62-9.58-23.84 0-14.21 9.58-23.71t23.75-9.5h162.67q14.16 0 23.75 9.61 9.58 9.62 9.58 23.84 0 14.21-9.58 23.71-9.59 9.5-23.75 9.5h-48v91.34q0 14.16-9.62 23.75-9.62 9.58-23.83 9.58Zm0-258q-14.22 0-23.72-9.58-9.5-9.59-9.5-23.75v-315.34q0-14.16 9.62-23.75 9.61-9.58 23.83-9.58 14.22 0 23.72 9.58 9.5 9.59 9.5 23.75v315.34q0 14.16-9.62 23.75-9.62 9.58-23.83 9.58Z"/>
  </symbol>

  <symbol id="42logo" viewBox="0 -200 960 960">
    <polygon points="32,412.6 362.1,412.6 362.1,578 526.8,578 526.8,279.1 197.3,279.1 526.8,-51.1 362.1,-51.1 32,279.1 "/>
    <polygon points="597.9,114.2 762.7,-51.1 597.9,-51.1 "/>
    <polygon points="762.7,114.2 597.9,279.1 597.9,443.9 762.7,443.9 762.7,279.1 928,114.2 928,-51.1 762.7,-51.1 "/>
    <polygon points="928,279.1 762.7,443.9 928,443.9 "/>
  </symbol>
</svg>